<svg width="177" height="32" viewBox="0 0 177 32" fill="none" xmlns="http://www.w3.org/2000/svg">
<mask id="mask0_1308_9873" style="mask-type:alpha" maskUnits="userSpaceOnUse" x="0" y="0" width="177" height="32">
<g clip-path="url(#clip0_1308_9873)">
<path fill-rule="evenodd" clip-rule="evenodd" d="M21.8845 21.8818C24.7701 21.882 27.5882 21.8818 30.4739 21.8818C31.149 21.882 31.5507 21.147 31.0674 20.6638L26.0414 15.6377C23.1981 15.6763 20.6172 16.855 18.7376 18.7347C16.858 20.6143 15.6792 23.195 15.6406 26.0385L20.6668 31.0645C21.1501 31.5478 21.8847 31.1459 21.8847 30.471C21.8845 27.5853 21.8847 24.7673 21.8847 21.8816L21.8845 21.8818Z" fill="#FE6F3C"/>
<path fill-rule="evenodd" clip-rule="evenodd" d="M9.39549 21.8818C6.50974 21.882 3.69182 21.8818 0.806067 21.8818C0.130985 21.882 -0.270733 21.147 0.212628 20.6638L5.23878 15.6377C8.08208 15.6763 10.663 16.855 12.5426 18.7347C14.4222 20.6143 15.6008 23.195 15.6396 26.0385L10.6136 31.0645C10.1303 31.5478 9.39549 31.1459 9.39569 30.471C9.39569 27.5853 9.39549 24.7673 9.39569 21.8816L9.39549 21.8818Z" fill="#FE6F3C"/>
<path fill-rule="evenodd" clip-rule="evenodd" d="M5.23849 15.6378L15.6389 5.23719L12.8693 2.4668L10.6133 0.210636C10.13 -0.272726 9.3952 0.129195 9.3954 0.804074C9.3956 3.68983 9.3952 6.50774 9.3954 9.39349C6.50965 9.39349 3.69173 9.3937 0.805977 9.39349C0.130895 9.39349 -0.27062 10.1283 0.212539 10.6116L5.23869 15.6376L5.23849 15.6378Z" fill="#FE6F3C"/>
<path fill-rule="evenodd" clip-rule="evenodd" d="M15.6406 5.23703L26.042 15.6376L31.068 10.6117C31.5514 10.1283 31.1496 9.39353 30.4746 9.39353C27.5888 9.39374 24.7709 9.39353 21.8851 9.39353C21.8853 6.50799 21.8849 3.68986 21.8851 0.804114C21.8853 0.129032 21.1503 -0.272686 20.6672 0.210675L19.3966 1.48224L15.6406 5.23703Z" fill="#FE6F3C"/>
<path d="M15.6414 17.3014C17.6914 17.3014 19.3532 15.6396 19.3532 13.5897C19.3532 11.5397 17.6914 9.87793 15.6414 9.87793C13.5915 9.87793 11.9297 11.5397 11.9297 13.5897C11.9297 15.6396 13.5915 17.3014 15.6414 17.3014Z" fill="#FE6F3C"/>
<path fill-rule="evenodd" clip-rule="evenodd" d="M26.9159 7.00324C28.3757 7.00324 29.5581 5.82062 29.5581 4.36099C29.5581 2.90116 28.3751 1.71875 26.9153 1.71875C25.4561 1.71875 24.2734 2.90177 24.2734 4.36099C24.2734 5.82083 25.456 7.00324 26.9159 7.00324Z" fill="#FE6F3C"/>
<path fill-rule="evenodd" clip-rule="evenodd" d="M26.9159 29.5569C28.3757 29.5569 29.5581 28.3743 29.5581 26.9145C29.5581 25.4549 28.3751 24.2725 26.9153 24.2725C25.4561 24.2725 24.2734 25.4555 24.2734 26.9145C24.2734 28.3743 25.456 29.5569 26.9159 29.5569Z" fill="#FE6F3C"/>
<path fill-rule="evenodd" clip-rule="evenodd" d="M4.36099 29.5569C5.82083 29.5569 7.00324 28.3743 7.00324 26.9145C7.00324 25.4547 5.82001 24.2725 4.36038 24.2725C2.90136 24.2725 1.71875 25.4553 1.71875 26.9145C1.71875 28.3743 2.90136 29.5569 4.3612 29.5569H4.36099Z" fill="#FE6F3C"/>
<path fill-rule="evenodd" clip-rule="evenodd" d="M4.3612 7.00324C5.82103 7.00324 7.00344 5.82062 7.00344 4.36099C7.00344 2.90116 5.82022 1.71875 4.36059 1.71875C2.90136 1.71875 1.71875 2.90177 1.71875 4.36099C1.71875 5.82083 2.90136 7.00324 4.3612 7.00324Z" fill="#FE6F3C"/>
<path d="M78.5717 18.8753C78.5717 19.4537 78.5616 19.8457 78.5407 20.0526H67.0486C67.193 21.1678 67.6733 22.0502 68.4892 22.7009C69.3048 23.3515 70.3014 23.6768 71.4783 23.6768C72.3041 23.6768 73.0732 23.4961 73.7858 23.1346C74.4981 22.7733 75.0403 22.2621 75.412 21.6014C75.7215 21.7458 76.1913 21.9574 76.8215 22.2363C77.4513 22.5149 77.8489 22.6853 78.014 22.7471C77.3944 23.966 76.486 24.8897 75.2881 25.5197C74.0903 26.1495 72.7687 26.4645 71.3233 26.4645C69.2171 26.4645 67.4514 25.7624 66.0267 24.358C64.6016 22.954 63.8889 21.1264 63.8889 18.8753C63.8889 16.6246 64.6016 14.8126 66.0267 13.4393C67.4514 12.0662 69.2173 11.3793 71.3233 11.3793C73.4296 11.3793 75.1644 12.0662 76.527 13.4393C77.8899 14.8126 78.5715 16.6248 78.5715 18.8753H78.5717ZM123.93 11.7372C122.127 12.0288 120.74 13.6022 120.74 15.4836V26.1546H123.93V24.544V18.1167V16.1841C123.93 15.1597 124.768 14.3219 125.792 14.3219H127.725H128.621V11.6888H124.534C124.328 11.6888 124.127 11.7055 123.93 11.737V11.7372ZM58.855 8.79231L52.8825 19.5026H50.753L44.7805 8.79231V26.1546H41.6094V4.8125H46.011L51.8174 15.1441L57.6241 4.8125H62.0261V26.1546H58.855V8.79231ZM167.647 18.2556L162.908 11.6888H166.687L166.725 11.7429L166.694 11.7648L169.28 15.4058L169.475 15.6851L169.476 15.6827L171.303 18.2544L171.302 18.2556L171.419 18.4173L173.775 21.7336L173.799 21.7162L177.002 26.1546H173.254L169.475 20.8579L165.634 26.1546H161.917L167.647 18.2556ZM162.521 18.8753C162.521 19.4537 162.51 19.8457 162.489 20.0526H150.998C151.142 21.1678 151.622 22.0502 152.438 22.7009C153.253 23.3515 154.25 23.6768 155.427 23.6768C156.253 23.6768 157.022 23.4961 157.735 23.1346C158.447 22.7733 158.989 22.2621 159.361 21.6014C159.67 21.7458 160.14 21.9574 160.77 22.2363C161.4 22.5149 161.797 22.6853 161.963 22.7471C161.343 23.966 160.435 24.8897 159.237 25.5197C158.039 26.1495 156.718 26.4645 155.272 26.4645C153.166 26.4645 151.4 25.7624 149.975 24.358C148.55 22.954 147.838 21.1264 147.838 18.8753C147.838 16.6246 148.55 14.8126 149.975 13.4393C151.4 12.0662 153.166 11.3793 155.272 11.3793C157.378 11.3793 159.113 12.0662 160.476 13.4393C161.839 14.8126 162.52 16.6248 162.52 18.8753H162.521ZM150.998 17.7294H159.392C159.248 16.6142 158.798 15.7416 158.045 15.1118C157.291 14.4818 156.367 14.167 155.272 14.167C154.137 14.167 153.176 14.487 152.392 15.1272C151.607 15.7676 151.142 16.6348 150.998 17.7292V17.7294ZM145.983 4.8125V26.1546H142.917L133.748 10.8836V26.1546H130.464V4.8125H133.624L142.7 19.9596V4.8125H145.983ZM111.287 23.3667C112.526 23.3667 113.569 22.954 114.416 22.1278C115.263 21.3018 115.686 20.2175 115.686 18.8753C115.686 17.5745 115.263 16.5214 114.416 15.716C113.569 14.9107 112.526 14.508 111.287 14.508C110.069 14.508 109.037 14.9107 108.19 15.716C107.343 16.5214 106.92 17.5745 106.92 18.8753C106.92 20.1968 107.343 21.2763 108.19 22.1124C109.037 22.9487 110.069 23.3667 111.287 23.3667ZM116.646 24.358C115.18 25.7624 113.394 26.4645 111.287 26.4645C109.181 26.4645 107.4 25.7573 105.944 24.3426C104.488 22.9282 103.76 21.1057 103.76 18.8753C103.76 16.6451 104.488 14.8384 105.944 13.4547C107.4 12.0711 109.181 11.3793 111.287 11.3793C113.414 11.3793 115.211 12.0711 116.677 13.4547C118.143 14.8384 118.876 16.6451 118.876 18.8753C118.876 21.1057 118.133 22.9331 116.646 24.358H116.646ZM100.523 6.20653V11.689H103.59V14.3221H100.523V26.1546H97.3327V14.3221H94.7308V11.689H97.3327V6.20653H100.523ZM83.6255 18.3797V26.1546H80.4349V11.689H83.6255V13.8577C84.0179 13.0727 84.6373 12.4636 85.4842 12.03C86.3307 11.5962 87.1878 11.3793 88.0548 11.3793C89.8103 11.3793 91.1682 11.9269 92.1282 13.0213C93.0884 14.1154 93.5685 15.6851 93.5685 17.7294V26.1546H90.3779V18.1011C90.3779 16.9654 90.1044 16.0825 89.5572 15.4526C89.0099 14.823 88.2715 14.508 87.3423 14.508C86.2893 14.508 85.4062 14.823 84.6938 15.4526C83.9813 16.0825 83.6253 17.0584 83.6253 18.3799L83.6255 18.3797ZM67.0488 17.7294H75.4433C75.2991 16.6142 74.8494 15.7416 74.0958 15.1118C73.3421 14.4818 72.418 14.167 71.3235 14.167C70.188 14.167 69.2274 14.487 68.4429 15.1272C67.6581 15.7676 67.1932 16.6348 67.0488 17.7292V17.7294Z" fill="#2F2F2F"/>
<path d="M172.069 11.9627L172.26 11.6885H176.039L175.841 11.9627L172.584 16.4465L172.385 16.7209L171.891 16.0247L171.774 15.8631L171.775 15.8618L170.547 14.1331L172.061 11.9627H172.069Z" fill="#FE6F3C"/>
</g>
</mask>
<g mask="url(#mask0_1308_9873)">
<rect x="-6" y="-10" width="195" height="52" fill="white"/>
</g>
<defs>
<clipPath id="clip0_1308_9873">
<rect width="177" height="31.2792" fill="white"/>
</clipPath>
</defs>
</svg>
