<svg width="177" height="33" viewBox="0 0 177 33" fill="none" xmlns="http://www.w3.org/2000/svg">
<g clip-path="url(#clip0_1060_10563)">
<path fill-rule="evenodd" clip-rule="evenodd" d="M21.8845 22.6298C24.7701 22.63 27.5882 22.6298 30.4739 22.6298C31.149 22.63 31.5507 21.8951 31.0674 21.4119L26.0414 16.3857C23.1981 16.4243 20.6172 17.6031 18.7376 19.4827C16.858 21.3623 15.6792 23.943 15.6406 26.7866L20.6668 31.8125C21.1501 32.2959 21.8847 31.8939 21.8847 31.2191C21.8845 28.3333 21.8847 25.5154 21.8847 22.6296L21.8845 22.6298Z" fill="#FE6F3C"/>
<path fill-rule="evenodd" clip-rule="evenodd" d="M9.39549 22.6298C6.50974 22.63 3.69182 22.6298 0.806067 22.6298C0.130985 22.63 -0.270733 21.8951 0.212628 21.4119L5.23878 16.3857C8.08208 16.4243 10.663 17.6031 12.5426 19.4827C14.4222 21.3623 15.6008 23.943 15.6396 26.7866L10.6136 31.8125C10.1303 32.2959 9.39549 31.8939 9.39569 31.2191C9.39569 28.3333 9.39549 25.5154 9.39569 22.6296L9.39549 22.6298Z" fill="#FE6F3C"/>
<path fill-rule="evenodd" clip-rule="evenodd" d="M5.23849 16.3858L15.6389 5.98524L12.8693 3.21484L10.6133 0.958683C10.13 0.475321 9.3952 0.877242 9.3954 1.55212C9.3956 4.43787 9.3952 7.25579 9.3954 10.1415C6.50965 10.1415 3.69173 10.1417 0.805977 10.1415C0.130895 10.1415 -0.27062 10.8763 0.212539 11.3597L5.23869 16.3856L5.23849 16.3858Z" fill="#FE6F3C"/>
<path fill-rule="evenodd" clip-rule="evenodd" d="M15.6406 5.98508L26.042 16.3857L31.068 11.3597C31.5514 10.8764 31.1496 10.1416 30.4746 10.1416C27.5888 10.1418 24.7709 10.1416 21.8851 10.1416C21.8853 7.25603 21.8849 4.43791 21.8851 1.55216C21.8853 0.877079 21.1503 0.47536 20.6672 0.958722L19.3966 2.23029L15.6406 5.98508Z" fill="#FE6F3C"/>
<path d="M15.6414 18.0494C17.6914 18.0494 19.3532 16.3876 19.3532 14.3377C19.3532 12.2878 17.6914 10.626 15.6414 10.626C13.5915 10.626 11.9297 12.2878 11.9297 14.3377C11.9297 16.3876 13.5915 18.0494 15.6414 18.0494Z" fill="#FE6F3C"/>
<path fill-rule="evenodd" clip-rule="evenodd" d="M26.9159 7.75128C28.3757 7.75128 29.5581 6.56867 29.5581 5.10904C29.5581 3.64921 28.3751 2.4668 26.9153 2.4668C25.4561 2.4668 24.2734 3.64981 24.2734 5.10904C24.2734 6.56887 25.456 7.75128 26.9159 7.75128Z" fill="#FE6F3C"/>
<path fill-rule="evenodd" clip-rule="evenodd" d="M26.9159 30.305C28.3757 30.305 29.5581 29.1224 29.5581 27.6625C29.5581 26.2029 28.3751 25.0205 26.9153 25.0205C25.4561 25.0205 24.2734 26.2035 24.2734 27.6625C24.2734 29.1224 25.456 30.305 26.9159 30.305Z" fill="#FE6F3C"/>
<path fill-rule="evenodd" clip-rule="evenodd" d="M4.36099 30.305C5.82083 30.305 7.00324 29.1224 7.00324 27.6625C7.00324 26.2027 5.82001 25.0205 4.36038 25.0205C2.90136 25.0205 1.71875 26.2033 1.71875 27.6625C1.71875 29.1224 2.90136 30.305 4.3612 30.305H4.36099Z" fill="#FE6F3C"/>
<path fill-rule="evenodd" clip-rule="evenodd" d="M4.3612 7.75128C5.82103 7.75128 7.00344 6.56867 7.00344 5.10904C7.00344 3.64921 5.82022 2.4668 4.36059 2.4668C2.90136 2.4668 1.71875 3.64981 1.71875 5.10904C1.71875 6.56887 2.90136 7.75128 4.3612 7.75128Z" fill="#FE6F3C"/>
<path d="M78.5717 19.6233C78.5717 20.2017 78.5616 20.5937 78.5407 20.8007H67.0486C67.193 21.9158 67.6733 22.7983 68.4892 23.449C69.3048 24.0995 70.3014 24.4249 71.4783 24.4249C72.3041 24.4249 73.0732 24.2441 73.7858 23.8826C74.4981 23.5213 75.0403 23.0101 75.412 22.3495C75.7215 22.4939 76.1913 22.7055 76.8215 22.9843C77.4513 23.263 77.8489 23.4334 78.014 23.4951C77.3944 24.7141 76.486 25.6377 75.2881 26.2677C74.0903 26.8975 72.7687 27.2125 71.3233 27.2125C69.2171 27.2125 67.4514 26.5104 66.0267 25.106C64.6016 23.7021 63.8889 21.8744 63.8889 19.6233C63.8889 17.3727 64.6016 15.5607 66.0267 14.1873C67.4514 12.8142 69.2173 12.1274 71.3233 12.1274C73.4296 12.1274 75.1644 12.8142 76.527 14.1873C77.8899 15.5607 78.5715 17.3729 78.5715 19.6233H78.5717ZM123.93 12.4852C122.127 12.7769 120.74 14.3502 120.74 16.2317V26.9026H123.93V25.2921V18.8648V16.9321C123.93 15.9077 124.768 15.07 125.792 15.07H127.725H128.621V12.4369H124.534C124.328 12.4369 124.127 12.4535 123.93 12.485V12.4852ZM58.855 9.54036L52.8825 20.2507H50.753L44.7805 9.54036V26.9026H41.6094V5.56055H46.011L51.8174 15.8921L57.6241 5.56055H62.0261V26.9026H58.855V9.54036ZM167.647 19.0037L162.908 12.4369H166.687L166.725 12.4909L166.694 12.5128L169.28 16.1539L169.475 16.4331L169.476 16.4307L171.303 19.0025L171.302 19.0037L171.419 19.1654L173.775 22.4817L173.799 22.4642L177.002 26.9026H173.254L169.475 21.6059L165.634 26.9026H161.917L167.647 19.0037ZM162.521 19.6233C162.521 20.2017 162.51 20.5937 162.489 20.8007H150.998C151.142 21.9158 151.622 22.7983 152.438 23.449C153.253 24.0995 154.25 24.4249 155.427 24.4249C156.253 24.4249 157.022 24.2441 157.735 23.8826C158.447 23.5213 158.989 23.0101 159.361 22.3495C159.67 22.4939 160.14 22.7055 160.77 22.9843C161.4 23.263 161.797 23.4334 161.963 23.4951C161.343 24.7141 160.435 25.6377 159.237 26.2677C158.039 26.8975 156.718 27.2125 155.272 27.2125C153.166 27.2125 151.4 26.5104 149.975 25.106C148.55 23.7021 147.838 21.8744 147.838 19.6233C147.838 17.3727 148.55 15.5607 149.975 14.1873C151.4 12.8142 153.166 12.1274 155.272 12.1274C157.378 12.1274 159.113 12.8142 160.476 14.1873C161.839 15.5607 162.52 17.3729 162.52 19.6233H162.521ZM150.998 18.4775H159.392C159.248 17.3623 158.798 16.4896 158.045 15.8598C157.291 15.2298 156.367 14.915 155.272 14.915C154.137 14.915 153.176 15.2351 152.392 15.8752C151.607 16.5156 151.142 17.3828 150.998 18.4773V18.4775ZM145.983 5.56055V26.9026H142.917L133.748 11.6316V26.9026H130.464V5.56055H133.624L142.7 20.7076V5.56055H145.983ZM111.287 24.1147C112.526 24.1147 113.569 23.7021 114.416 22.8759C115.263 22.0499 115.686 20.9656 115.686 19.6233C115.686 18.3225 115.263 17.2695 114.416 16.464C113.569 15.6587 112.526 15.256 111.287 15.256C110.069 15.256 109.037 15.6587 108.19 16.464C107.343 17.2695 106.92 18.3225 106.92 19.6233C106.92 20.9449 107.343 22.0243 108.19 22.8604C109.037 23.6968 110.069 24.1147 111.287 24.1147ZM116.646 25.106C115.18 26.5104 113.394 27.2125 111.287 27.2125C109.181 27.2125 107.4 26.5053 105.944 25.0906C104.488 23.6763 103.76 21.8537 103.76 19.6233C103.76 17.3932 104.488 15.5864 105.944 14.2028C107.4 12.8191 109.181 12.1274 111.287 12.1274C113.414 12.1274 115.211 12.8191 116.677 14.2028C118.143 15.5864 118.876 17.3932 118.876 19.6233C118.876 21.8537 118.133 23.6811 116.646 25.106H116.646ZM100.523 6.95458V12.4371H103.59V15.0702H100.523V26.9026H97.3327V15.0702H94.7308V12.4371H97.3327V6.95458H100.523ZM83.6255 19.1278V26.9026H80.4349V12.4371H83.6255V14.6057C84.0179 13.8208 84.6373 13.2117 85.4842 12.7781C86.3307 12.3443 87.1878 12.1274 88.0548 12.1274C89.8103 12.1274 91.1682 12.6749 92.1282 13.7694C93.0884 14.8634 93.5685 16.4331 93.5685 18.4775V26.9026H90.3779V18.8491C90.3779 17.7134 90.1044 16.8306 89.5572 16.2006C89.0099 15.571 88.2715 15.256 87.3423 15.256C86.2893 15.256 85.4062 15.571 84.6938 16.2006C83.9813 16.8306 83.6253 17.8065 83.6253 19.128L83.6255 19.1278ZM67.0488 18.4775H75.4433C75.2991 17.3623 74.8494 16.4896 74.0958 15.8598C73.3421 15.2298 72.418 14.915 71.3235 14.915C70.188 14.915 69.2274 15.2351 68.4429 15.8752C67.6581 16.5156 67.1932 17.3828 67.0488 18.4773V18.4775Z" fill="#2F2F2F"/>
<path d="M172.069 12.7107L172.26 12.4365H176.039L175.841 12.7107L172.584 17.1946L172.385 17.469L171.891 16.7728L171.774 16.6111L171.775 16.6099L170.547 14.8812L172.061 12.7107H172.069Z" fill="#FE6F3C"/>
</g>
<defs>
<clipPath id="clip0_1060_10563">
<rect width="177" height="31.2792" fill="white" transform="translate(0 0.748047)"/>
</clipPath>
</defs>
</svg>
